<svg xmlns="http://www.w3.org/2000/svg" viewBox="0 0 960 540" role="img" aria-label="Ticket automation preview">
  <rect width="960" height="540" fill="#fafafa"/>
  <rect x="56" y="54" width="372" height="416" rx="28" fill="#ffffff" stroke="#d4d4d4"/>
  <rect x="86" y="88" width="150" height="16" rx="8" fill="#171717"/>
  <rect x="86" y="134" width="262" height="12" rx="6" fill="#a3a3a3"/>
  <rect x="86" y="164" width="210" height="12" rx="6" fill="#d4d4d4"/>
  <rect x="86" y="208" width="282" height="88" rx="18" fill="#f7f7f7" stroke="#e5e5e5"/>
  <path d="M116 262h78l30-34 34 48 38-28" fill="none" stroke="#ef4444" stroke-width="7" stroke-linecap="round" stroke-linejoin="round"/>
  <rect x="86" y="330" width="120" height="30" rx="15" fill="#fee2e2"/>
  <rect x="220" y="330" width="112" height="30" rx="15" fill="#eff6ff"/>
  <rect x="504" y="88" width="354" height="368" rx="28" fill="#171717"/>
  <rect x="536" y="124" width="142" height="18" rx="9" fill="#fafafa"/>
  <rect x="536" y="170" width="246" height="12" rx="6" fill="#a3a3a3"/>
  <rect x="536" y="202" width="288" height="12" rx="6" fill="#737373"/>
  <rect x="536" y="250" width="264" height="104" rx="18" fill="#262626" stroke="#404040"/>
  <path d="M562 286h194M562 322h122" stroke="#d4d4d4" stroke-width="10" stroke-linecap="round"/>
  <circle cx="790" cy="318" r="17" fill="#16a34a"/>
  <path d="M781 318l8 8 17-21" fill="none" stroke="#f0fdf4" stroke-width="5" stroke-linecap="round" stroke-linejoin="round"/>
  <path d="M424 270h82" stroke="#3b82f6" stroke-width="12" stroke-linecap="round"/>
  <path d="M486 248l28 22-28 22" fill="none" stroke="#3b82f6" stroke-width="12" stroke-linecap="round" stroke-linejoin="round"/>
</svg>
